<mxfile host="app.diagrams.net" modified="2021-08-02T12:37:59.572Z" agent="5.0 (Windows NT 10.0; Win64; x64) AppleWebKit/537.36 (KHTML, like Gecko) Chrome/92.0.4515.107 Safari/537.36" etag="uwWvHzABJNsLSuK32lbO" version="14.9.0" type="github">
  <diagram id="M5DfG_PXNpkLSAsTsnyR" name="Page-1">
    <mxGraphModel dx="1422" dy="772" grid="1" gridSize="10" guides="1" tooltips="1" connect="1" arrows="1" fold="1" page="1" pageScale="1" pageWidth="827" pageHeight="1169" math="0" shadow="0">
      <root>
        <mxCell id="0" />
        <mxCell id="1" parent="0" />
        <mxCell id="M-LIAP7oOITcxdExe3JB-1" value="Client" style="rounded=1;whiteSpace=wrap;html=1;" vertex="1" parent="1">
          <mxGeometry x="130" y="180" width="120" height="60" as="geometry" />
        </mxCell>
        <mxCell id="M-LIAP7oOITcxdExe3JB-2" value="" style="swimlane;startSize=0;" vertex="1" parent="1">
          <mxGeometry x="100" y="130" width="540" height="390" as="geometry" />
        </mxCell>
        <mxCell id="M-LIAP7oOITcxdExe3JB-3" value="Client" style="rounded=1;whiteSpace=wrap;html=1;" vertex="1" parent="M-LIAP7oOITcxdExe3JB-2">
          <mxGeometry x="30" y="150" width="120" height="60" as="geometry" />
        </mxCell>
        <mxCell id="M-LIAP7oOITcxdExe3JB-4" value="Client" style="rounded=1;whiteSpace=wrap;html=1;" vertex="1" parent="M-LIAP7oOITcxdExe3JB-2">
          <mxGeometry x="30" y="240" width="120" height="60" as="geometry" />
        </mxCell>
        <mxCell id="M-LIAP7oOITcxdExe3JB-6" value="Proxy" style="rounded=1;whiteSpace=wrap;html=1;" vertex="1" parent="M-LIAP7oOITcxdExe3JB-2">
          <mxGeometry x="280" y="150" width="120" height="60" as="geometry" />
        </mxCell>
        <mxCell id="M-LIAP7oOITcxdExe3JB-9" value="" style="endArrow=classic;html=1;exitX=1;exitY=0.5;exitDx=0;exitDy=0;" edge="1" parent="M-LIAP7oOITcxdExe3JB-2" source="M-LIAP7oOITcxdExe3JB-4">
          <mxGeometry width="50" height="50" relative="1" as="geometry">
            <mxPoint x="150" y="300" as="sourcePoint" />
            <mxPoint x="200" y="250" as="targetPoint" />
          </mxGeometry>
        </mxCell>
        <mxCell id="M-LIAP7oOITcxdExe3JB-10" value="" style="endArrow=classic;html=1;exitX=1;exitY=0.5;exitDx=0;exitDy=0;entryX=0;entryY=0.5;entryDx=0;entryDy=0;" edge="1" parent="M-LIAP7oOITcxdExe3JB-2" source="M-LIAP7oOITcxdExe3JB-4" target="M-LIAP7oOITcxdExe3JB-6">
          <mxGeometry width="50" height="50" relative="1" as="geometry">
            <mxPoint x="150" y="300" as="sourcePoint" />
            <mxPoint x="200" y="250" as="targetPoint" />
          </mxGeometry>
        </mxCell>
        <mxCell id="M-LIAP7oOITcxdExe3JB-5" value="LAN" style="whiteSpace=wrap;html=1;" vertex="1" parent="1">
          <mxGeometry x="290" y="100" width="120" height="60" as="geometry" />
        </mxCell>
        <mxCell id="M-LIAP7oOITcxdExe3JB-7" value="" style="endArrow=classic;html=1;exitX=1;exitY=0.5;exitDx=0;exitDy=0;entryX=0;entryY=0.5;entryDx=0;entryDy=0;" edge="1" parent="1" source="M-LIAP7oOITcxdExe3JB-1" target="M-LIAP7oOITcxdExe3JB-6">
          <mxGeometry width="50" height="50" relative="1" as="geometry">
            <mxPoint x="390" y="420" as="sourcePoint" />
            <mxPoint x="440" y="370" as="targetPoint" />
          </mxGeometry>
        </mxCell>
        <mxCell id="M-LIAP7oOITcxdExe3JB-8" value="" style="endArrow=classic;html=1;exitX=1;exitY=0.5;exitDx=0;exitDy=0;" edge="1" parent="1" source="M-LIAP7oOITcxdExe3JB-3">
          <mxGeometry width="50" height="50" relative="1" as="geometry">
            <mxPoint x="260" y="220" as="sourcePoint" />
            <mxPoint x="380" y="310" as="targetPoint" />
            <Array as="points">
              <mxPoint x="310" y="310" />
            </Array>
          </mxGeometry>
        </mxCell>
        <mxCell id="M-LIAP7oOITcxdExe3JB-11" value="Server" style="rounded=1;whiteSpace=wrap;html=1;" vertex="1" parent="1">
          <mxGeometry x="700" y="280" width="120" height="60" as="geometry" />
        </mxCell>
      </root>
    </mxGraphModel>
  </diagram>
</mxfile>
